<?xml version="1.0" encoding="UTF-8" standalone="no"?>
<svg
   width="16"
   height="16"
   viewBox="0 0 16 16"
   fill="currentColor"
   version="1.1"
   id="svg1"
   sodipodi:docname="debug-step-into-instruction.svg"
   inkscape:version="1.4.2 (ebf0e940, 2025-05-08)"
   xmlns:inkscape="http://www.inkscape.org/namespaces/inkscape"
   xmlns:sodipodi="http://sodipodi.sourceforge.net/DTD/sodipodi-0.dtd"
   xmlns="http://www.w3.org/2000/svg"
   xmlns:svg="http://www.w3.org/2000/svg">
  <defs
     id="defs1" />
  <sodipodi:namedview
     id="namedview1"
     pagecolor="#ffffff"
     bordercolor="#000000"
     borderopacity="0.25"
     inkscape:showpageshadow="2"
     inkscape:pageopacity="0.0"
     inkscape:pagecheckerboard="0"
     inkscape:deskcolor="#d1d1d1"
     inkscape:zoom="24.924563"
     inkscape:cx="15.526852"
     inkscape:cy="6.4594913"
     inkscape:window-width="2544"
     inkscape:window-height="1371"
     inkscape:window-x="8"
     inkscape:window-y="33"
     inkscape:window-maximized="0"
     inkscape:current-layer="svg1" />
  <path
     fill-rule="evenodd"
     clip-rule="evenodd"
     d="M8 9.532h.542l3.905-3.905-1.061-1.06-2.637 2.61V1H7.251v6.177l-2.637-2.61-1.061 1.06 3.905 3.905H8zm1.956 3.481a2 2 0 1 1-4 0 2 2 0 0 1 4 0z"
     id="path1" />
  <path
     style="font-weight:bold;font-size:9.33333px;font-family:'JetBrains Mono';-inkscape-font-specification:'JetBrains Mono Bold';text-align:center;text-anchor:middle;fill:#000000;stroke-miterlimit:9;stroke-dasharray:4.00002, 2.00001"
     d="m 11.501329,16 v -1.054666 h 1.754666 v -3.023999 h -1.567999 v -1.054667 h 2.734666 v 4.078666 h 1.577333 V 16 Z m 2.258666,-5.991998 q -0.354666,0 -0.56,-0.1773332 -0.205333,-0.1866666 -0.205333,-0.4946665 0,-0.3079999 0.205333,-0.4853332 0.205334,-0.1866666 0.56,-0.1866666 0.354667,0 0.56,0.1866666 0.205333,0.1773333 0.205333,0.4853332 0,0.3079999 -0.205333,0.4946665 -0.205333,0.1773332 -0.56,0.1773332 z"
     id="text1"
     aria-label="i" />
</svg>
