<?xml version="1.0" encoding="UTF-8" standalone="no"?>
<svg
   width="16"
   height="16"
   viewBox="0 0 16 16"
   fill="currentColor"
   version="1.1"
   id="svg1"
   sodipodi:docname="debug-step-back-instruction.svg"
   inkscape:version="1.4.2 (ebf0e940, 2025-05-08)"
   xmlns:inkscape="http://www.inkscape.org/namespaces/inkscape"
   xmlns:sodipodi="http://sodipodi.sourceforge.net/DTD/sodipodi-0.dtd"
   xmlns="http://www.w3.org/2000/svg"
   xmlns:svg="http://www.w3.org/2000/svg">
  <defs
     id="defs1" />
  <sodipodi:namedview
     id="namedview1"
     pagecolor="#ffffff"
     bordercolor="#000000"
     borderopacity="0.25"
     inkscape:showpageshadow="2"
     inkscape:pageopacity="0.0"
     inkscape:pagecheckerboard="0"
     inkscape:deskcolor="#d1d1d1"
     inkscape:zoom="30.993829"
     inkscape:cx="1.9681337"
     inkscape:cy="6.4528975"
     inkscape:window-width="2544"
     inkscape:window-height="1371"
     inkscape:window-x="8"
     inkscape:window-y="33"
     inkscape:window-maximized="0"
     inkscape:current-layer="svg1" />
  <path
     fill-rule="evenodd"
     clip-rule="evenodd"
     d="M1.75 5.75v-4h1.5v2.542c1.145-1.359 2.911-2.209 4.84-2.209 3.177 0 5.92 2.307 6.16 5.398l.02.269h-1.5l-.022-.226c-.212-2.195-2.202-3.94-4.656-3.94-1.736 0-3.244.875-4.05 2.166h2.83v1.5H2.707l-.961-.975V5.75h.003zM8 14a2 2 0 1 1 0-4 2 2 0 0 1 0 4z"
     id="path1" />
  <path
     style="font-weight:bold;font-size:9.33333px;font-family:'JetBrains Mono';-inkscape-font-specification:'JetBrains Mono Bold';text-align:center;text-anchor:middle;fill:#000000;stroke-miterlimit:9;stroke-dasharray:4.00002, 2.00001"
     d="M 11.501334,16 V 14.945333 H 13.256 v -3.023998 h -1.567999 v -1.054667 h 2.734666 v 4.078665 H 16 V 16 Z M 13.76,10.008001 q -0.354666,0 -0.56,-0.177333 -0.205333,-0.1866663 -0.205333,-0.4946662 0,-0.3079999 0.205333,-0.4853332 0.205334,-0.1866666 0.56,-0.1866666 0.354667,0 0.56,0.1866666 0.205333,0.1773333 0.205333,0.4853332 0,0.3079999 -0.205333,0.4946662 -0.205333,0.177333 -0.56,0.177333 z"
     id="text1"
     aria-label="i" />
</svg>
